<?xml version="1.0" standalone="no"?>
<!DOCTYPE svg PUBLIC "-//W3C//DTD SVG 20010904//EN"
 "http://www.w3.org/TR/2001/REC-SVG-20010904/DTD/svg10.dtd">
<svg version="1.0" xmlns="http://www.w3.org/2000/svg"
 width="1008.000000pt" height="1055.000000pt" viewBox="0 0 1008.000000 1055.000000"
 preserveAspectRatio="xMidYMid meet">

<g transform="translate(0.000000,1055.000000) scale(0.100000,-0.100000)"
fill="#000000" stroke="none">
<path d="M5737 8583 c-10 -9 -9 -111 1 -116 4 -3 7 24 7 59 0 35 0 64 -1 64 0
0 -4 -3 -7 -7z"/>
<path d="M4818 7853 c7 -3 16 -2 19 1 4 3 -2 6 -13 5 -11 0 -14 -3 -6 -6z"/>
<path d="M4643 7795 c-79 -37 -97 -52 -35 -31 69 25 145 68 115 65 -5 0 -41
-15 -80 -34z"/>
<path d="M4977 7780 c-118 -14 -221 -46 -337 -107 -137 -72 -228 -140 -302
-227 -124 -143 -201 -290 -234 -446 -18 -87 -18 -186 0 -193 10 -4 17 14 26
71 23 142 105 342 184 450 46 63 221 222 243 222 7 0 13 5 13 10 0 14 -4 13
-44 -11 -55 -32 -42 -16 24 30 33 24 57 47 54 53 -4 6 -1 9 7 6 8 -3 31 4 52
15 25 13 42 16 48 10 7 -7 31 -2 73 13 203 74 404 76 609 8 83 -27 108 -25 67
6 -14 11 -18 18 -10 17 22 -4 133 -48 148 -60 7 -5 15 -7 19 -4 11 12 -181 95
-267 115 -100 25 -264 34 -373 22z m230 -16 c-3 -3 -12 -4 -19 -1 -8 3 -5 6 6
6 11 1 17 -2 13 -5z m103 -14 c0 -5 -2 -10 -4 -10 -3 0 -8 5 -11 10 -3 6 -1
10 4 10 6 0 11 -4 11 -10z m-645 -80 c-3 -5 -16 -15 -28 -21 -19 -9 -19 -8 3
10 28 23 34 26 25 11z m-76 -54 c-2 -2 -15 -9 -29 -15 -24 -11 -24 -11 -6 3
16 13 49 24 35 12z m-355 -360 c-14 -26 -28 -45 -31 -42 -3 2 8 28 23 56 16
29 30 48 31 43 2 -5 -8 -31 -23 -57z"/>
<path d="M4445 7680 c-3 -5 -2 -10 4 -10 5 0 13 5 16 10 3 6 2 10 -4 10 -5 0
-13 -4 -16 -10z"/>
<path d="M5630 7631 c0 -6 7 -11 15 -11 8 0 15 -4 15 -8 0 -4 33 -32 73 -62
40 -30 86 -71 102 -90 16 -19 42 -46 59 -60 l31 -25 -22 30 c-30 43 -150 156
-203 191 -65 44 -70 46 -70 35z"/>
<path d="M4619 7383 c-13 -17 -13 -17 6 -3 11 8 22 16 24 17 2 2 0 3 -6 3 -6
0 -17 -8 -24 -17z"/>
<path d="M5570 7380 c0 -5 12 -21 28 -36 22 -21 23 -24 5 -15 -40 20 -39 -25
1 -58 13 -11 22 -10 51 3 19 9 35 21 35 26 0 5 -21 27 -47 49 -47 40 -73 51
-73 31z"/>
<path d="M5995 7246 c20 -50 19 -56 -5 -27 -28 32 -25 15 11 -75 17 -42 38
-102 46 -133 8 -31 21 -78 29 -106 l13 -50 -4 75 c-3 41 -8 89 -11 105 -4 23
-3 27 6 15 8 -12 9 -8 4 15 -9 40 -65 165 -87 196 -17 23 -17 23 -2 -15z"/>
<path d="M4306 7055 c-3 -9 -6 -22 -5 -28 0 -7 5 -1 10 12 5 13 8 26 5 28 -2
2 -6 -3 -10 -12z"/>
<path d="M5685 6960 c-3 -5 -19 -10 -35 -10 -16 0 -32 -5 -35 -10 -4 -6 -12
-10 -18 -9 -29 3 -48 -2 -42 -12 4 -6 -2 -13 -14 -16 -12 -3 -21 -10 -21 -16
0 -6 -13 -22 -28 -36 -40 -37 -83 -97 -75 -104 3 -4 0 -7 -8 -7 -14 0 -74 -60
-61 -60 4 -1 -5 -8 -20 -16 -20 -10 -28 -23 -28 -40 0 -19 -4 -25 -15 -20 -16
6 -16 5 -20 -34 -1 -13 -8 -26 -14 -28 -6 -2 -11 -10 -11 -18 0 -10 -5 -12
-12 -8 -10 6 -10 4 0 -8 10 -13 10 -17 0 -21 -8 -3 -6 -6 5 -6 12 -1 15 -5 10
-13 -7 -13 -15 -115 -14 -193 2 -133 5 -154 17 -159 8 -3 14 -10 14 -16 0 -6
-4 -8 -10 -5 -5 3 -10 1 -10 -4 0 -18 5 -26 13 -23 5 1 6 -2 3 -7 -4 -5 -2
-12 4 -16 6 -4 8 -10 5 -15 -3 -4 4 -10 15 -13 17 -4 26 -28 21 -59 0 -4 6 -5
14 -2 10 4 15 0 15 -11 0 -9 4 -14 8 -11 5 3 18 -3 28 -13 11 -10 32 -17 47
-17 18 1 27 -3 27 -14 0 -10 3 -11 8 -4 4 6 17 14 30 18 12 4 22 12 22 17 0 5
6 9 13 9 17 0 57 46 57 65 0 8 7 18 16 23 11 6 13 11 5 16 -7 5 -2 16 16 32
14 13 21 24 14 24 -6 0 -11 5 -11 11 0 5 4 7 10 4 5 -3 17 12 26 34 9 22 21
39 27 38 6 -1 11 12 11 31 0 17 3 32 7 32 4 0 9 9 12 20 3 12 1 18 -5 14 -6
-4 -6 1 1 13 6 11 8 23 4 26 -3 3 -2 14 2 24 5 10 7 24 6 32 -1 7 1 11 6 8 5
-3 8 9 8 26 0 18 1 36 4 41 7 16 12 88 14 208 2 109 5 123 29 119 4 0 3 12 -3
27 -10 26 -29 103 -31 130 -1 6 -5 12 -10 12 -4 0 -8 7 -8 15 0 17 -25 20 -35
5z"/>
<path d="M6004 6656 c-3 -8 -19 -19 -35 -25 -48 -17 -51 -41 -46 -315 3 -139
2 -259 -3 -272 -7 -17 -17 -24 -36 -24 -14 0 -50 -16 -79 -36 -62 -41 -78 -70
-126 -224 -18 -58 -63 -179 -102 -270 l-70 -165 1 -98 c1 -123 28 -207 68
-207 21 0 27 7 26 30 0 3 -3 21 -7 40 -7 32 -6 34 10 20 16 -13 17 -9 9 65
-10 105 -8 121 17 156 11 16 35 61 53 101 40 87 136 369 135 395 0 10 -3 13
-6 6 -6 -16 -23 -17 -23 -3 0 6 8 14 18 17 25 9 32 24 21 45 -22 41 30 88 65
59 9 -8 16 -8 20 -2 10 15 46 4 73 -21 l24 -23 -27 -21 c-29 -24 -28 -48 4
-56 47 -13 47 -14 45 404 -1 216 -2 403 -3 416 0 25 -18 30 -26 8z m-1 -143
c9 -103 8 -451 -3 -458 -20 -13 -30 50 -30 199 0 171 9 306 20 306 5 0 10 -21
13 -47z"/>
<path d="M4170 6213 c0 -358 2 -432 14 -449 25 -33 50 -7 56 59 3 31 11 62 17
68 15 15 64 21 81 10 8 -4 35 -71 62 -147 58 -168 154 -407 182 -452 19 -32
20 -39 8 -163 -6 -72 -9 -133 -6 -136 3 -4 6 4 6 16 0 17 4 22 16 17 20 -8 41
14 50 50 4 16 16 49 27 74 34 78 21 160 -56 342 -35 84 -77 189 -92 233 -38
113 -106 246 -135 267 -14 10 -45 21 -70 24 -67 8 -70 10 -70 49 0 45 -17 38
-18 -7 -1 -29 -28 -65 -40 -53 -2 2 -5 142 -6 311 -1 236 -4 308 -13 311 -10
4 -13 -86 -13 -424z m263 -394 c5 -19 4 -20 -12 -5 -10 9 -22 13 -26 9 -5 -5
-3 0 4 9 16 21 26 17 34 -13z m184 -701 c-3 -7 -5 -2 -5 12 0 14 2 19 5 13 2
-7 2 -19 0 -25z"/>
<path d="M6110 6615 c-5 -56 3 -709 9 -765 l7 -65 14 45 c17 54 31 70 60 70
17 0 20 -4 14 -17 -4 -10 -9 -39 -12 -65 -2 -27 -8 -48 -13 -48 -5 0 -9 -4 -9
-10 0 -17 92 18 146 55 88 61 84 44 84 380 0 216 -3 294 -11 289 -8 -4 -9 -33
-5 -89 4 -45 2 -93 -3 -106 l-9 -24 -5 25 c-4 14 -8 57 -9 97 -4 83 -12 97
-38 66 -15 -19 -19 -51 -24 -230 -6 -183 -9 -213 -27 -250 -21 -41 -42 -58
-60 -47 -5 3 -9 135 -9 302 0 280 -4 342 -19 342 -3 0 -6 -147 -6 -327 0 -296
-2 -326 -17 -329 -9 -1 -19 7 -23 20 -4 11 -9 161 -11 331 -2 171 -8 324 -13
340 -7 22 -10 25 -11 10z"/>
<path d="M4090 6615 c0 -5 -3 -156 -6 -335 -5 -283 -8 -327 -22 -337 -39 -31
-43 -19 -37 110 4 67 7 211 8 319 2 170 0 195 -12 183 -20 -19 -29 -150 -30
-407 -1 -127 -5 -219 -11 -223 -14 -8 -43 13 -66 49 -26 38 -32 81 -39 261 -9
233 -15 255 -71 255 l-27 0 8 -292 c4 -161 11 -301 16 -310 5 -9 43 -39 84
-66 58 -40 86 -52 131 -58 70 -8 73 -4 74 101 1 44 5 226 10 405 4 186 4 331
-1 340 -4 8 -9 11 -9 5z m-243 -482 c-2 -16 -4 -3 -4 27 0 30 2 43 4 28 2 -16
2 -40 0 -55z m0 -65 c-3 -7 -5 -2 -5 12 0 14 2 19 5 13 2 -7 2 -19 0 -25z m63
-133 c13 -14 18 -25 11 -25 -6 0 -23 -7 -36 -16 -20 -13 -23 -20 -14 -35 6
-13 6 -19 -1 -19 -5 0 -10 6 -10 14 0 8 -7 16 -15 20 -8 3 -13 11 -10 18 20
57 26 68 38 68 7 0 24 -11 37 -25z"/>
<path d="M4236 6588 c8 -28 12 -33 20 -25 9 8 -6 47 -17 47 -6 0 -7 -10 -3
-22z"/>
<path d="M4249 6533 c-5 -62 -5 -103 1 -228 l7 -140 1 193 c1 105 0 192 -3
192 -3 0 -6 -8 -6 -17z"/>
<path d="M2510 5253 c0 -13 27 -49 33 -43 3 3 -3 16 -14 29 -10 13 -19 19 -19
14z"/>
<path d="M6378 4673 c7 -3 16 -2 19 1 4 3 -2 6 -13 5 -11 0 -14 -3 -6 -6z"/>
<path d="M6660 4590 c8 -5 22 -10 30 -10 13 0 13 1 0 10 -8 5 -22 10 -30 10
-13 0 -13 -1 0 -10z"/>
<path d="M6710 4576 c0 -2 7 -7 16 -10 8 -3 12 -2 9 4 -6 10 -25 14 -25 6z"/>
<path d="M3611 4547 c-8 -10 -7 -14 4 -14 8 0 15 6 15 14 0 7 -2 13 -4 13 -2
0 -9 -6 -15 -13z"/>
<path d="M6833 4467 c3 -8 1 -19 -5 -25 -19 -19 1 -32 22 -14 25 21 25 29 -2
43 -17 9 -20 9 -15 -4z"/>
<path d="M3726 4461 c-19 -7 -19 -8 2 -13 12 -4 20 -2 17 2 -3 5 1 11 7 13 7
3 9 5 3 6 -5 0 -19 -4 -29 -8z"/>
<path d="M3679 4433 c-13 -16 -12 -17 4 -4 9 7 17 15 17 17 0 8 -8 3 -21 -13z"/>
<path d="M6795 4420 c-7 -12 2 -30 16 -30 12 0 12 27 0 35 -5 3 -12 1 -16 -5z"/>
<path d="M3650 4406 c0 -24 30 -126 37 -126 5 0 2 22 -12 95 -7 36 -25 58 -25
31z"/>
<path d="M3491 4373 c0 -5 4 -17 8 -28 7 -17 8 -17 13 8 4 19 1 27 -8 27 -8 0
-14 -3 -13 -7z"/>
<path d="M5531 4364 c0 -11 3 -14 6 -6 3 7 2 16 -1 19 -3 4 -6 -2 -5 -13z"/>
<path d="M5708 4323 c16 -32 35 -75 42 -96 6 -21 14 -36 16 -34 10 10 -68 187
-82 187 -2 0 9 -26 24 -57z"/>
<path d="M4766 4353 c-6 -14 -5 -15 5 -6 7 7 10 15 7 18 -3 3 -9 -2 -12 -12z"/>
<path d="M5212 4267 c0 -85 -8 -105 -68 -161 -29 -27 -32 -35 -21 -45 12 -9
21 -1 51 42 42 61 63 152 48 208 -8 29 -10 23 -10 -44z"/>
<path d="M4752 4290 c0 -14 2 -19 5 -12 2 6 2 18 0 25 -3 6 -5 1 -5 -13z"/>
<path d="M5432 4270 c0 -14 2 -19 5 -12 2 6 2 18 0 25 -3 6 -5 1 -5 -13z"/>
<path d="M6527 4210 c-3 -11 -1 -20 4 -20 5 0 9 9 9 20 0 11 -2 20 -4 20 -2 0
-6 -9 -9 -20z"/>
<path d="M6490 4145 c-22 -22 -43 -35 -60 -35 -14 0 -48 -11 -76 -25 -58 -29
-223 -166 -314 -261 -62 -64 -61 -64 25 15 158 146 252 210 352 240 42 12 64
26 86 54 40 48 30 57 -13 12z"/>
<path d="M4696 4145 c-9 -26 -7 -32 5 -12 6 10 9 21 6 23 -2 3 -7 -2 -11 -11z"/>
<path d="M3722 4130 c0 -14 2 -19 5 -12 2 6 2 18 0 25 -3 6 -5 1 -5 -13z"/>
<path d="M5816 4124 c-15 -14 -26 -27 -24 -29 2 -3 17 9 33 25 35 36 30 39 -9
4z"/>
<path d="M4621 3959 c-23 -55 -41 -103 -39 -105 2 -2 23 42 47 97 23 56 40
103 38 105 -2 2 -23 -42 -46 -97z"/>
<path d="M5131 4024 c0 -11 3 -14 6 -6 3 7 2 16 -1 19 -3 4 -6 -2 -5 -13z"/>
<path d="M2918 4023 c12 -2 30 -2 40 0 9 3 -1 5 -23 4 -22 0 -30 -2 -17 -4z"/>
<path d="M2848 4013 c6 -2 18 -2 25 0 6 3 1 5 -13 5 -14 0 -19 -2 -12 -5z"/>
<path d="M2755 4000 c-7 -12 2 -12 30 0 19 8 19 9 -2 9 -12 1 -25 -3 -28 -9z"/>
<path d="M5462 3965 c0 -16 2 -22 5 -12 2 9 2 23 0 30 -3 6 -5 -1 -5 -18z"/>
<path d="M5472 3885 c0 -16 2 -22 5 -12 2 9 2 23 0 30 -3 6 -5 -1 -5 -18z"/>
<path d="M5482 3800 c0 -14 2 -19 5 -12 2 6 2 18 0 25 -3 6 -5 1 -5 -13z"/>
<path d="M5894 3668 c-17 -18 -37 -42 -45 -53 -26 -36 18 3 52 47 37 46 34 50
-7 6z"/>
<path d="M4884 3639 c-15 -29 -15 -32 -1 -21 9 8 21 11 27 7 12 -8 13 15 1 34
-7 11 -13 6 -27 -20z"/>
<path d="M7138 3658 c-7 -17 8 -46 18 -35 4 4 3 17 -3 29 -7 17 -11 19 -15 6z"/>
<path d="M5854 3462 c-13 -8 -17 -72 -5 -72 8 0 24 71 18 76 -1 2 -7 0 -13 -4z"/>
<path d="M7297 3429 c7 -7 15 -10 18 -7 3 3 -2 9 -12 12 -14 6 -15 5 -6 -5z"/>
<path d="M3100 3419 c0 -5 11 -9 25 -9 14 0 25 2 25 4 0 2 -11 6 -25 8 -14 3
-25 1 -25 -3z"/>
<path d="M3170 3400 c8 -5 20 -10 25 -10 6 0 3 5 -5 10 -8 5 -19 10 -25 10 -5
0 -3 -5 5 -10z"/>
<path d="M2795 3380 c-4 -7 3 -8 22 -4 38 9 42 14 10 14 -14 0 -29 -5 -32 -10z"/>
<path d="M7320 3369 c0 -5 5 -7 10 -4 6 3 10 8 10 11 0 2 -4 4 -10 4 -5 0 -10
-5 -10 -11z"/>
<path d="M7366 3335 c4 -8 11 -15 16 -15 6 0 5 6 -2 15 -7 8 -14 15 -16 15 -2
0 -1 -7 2 -15z"/>
<path d="M7325 3300 c3 -5 8 -10 11 -10 2 0 4 5 4 10 0 6 -5 10 -11 10 -5 0
-7 -4 -4 -10z"/>
<path d="M5908 3293 c7 -3 16 -2 19 1 4 3 -2 6 -13 5 -11 0 -14 -3 -6 -6z"/>
<path d="M6910 3289 c0 -5 5 -7 10 -4 6 3 10 8 10 11 0 2 -4 4 -10 4 -5 0 -10
-5 -10 -11z"/>
<path d="M6597 3283 c-10 -9 -9 -53 2 -53 12 0 20 35 12 49 -4 6 -10 8 -14 4z"/>
<path d="M6970 3281 c0 -6 4 -12 8 -15 5 -3 9 1 9 9 0 8 -4 15 -9 15 -4 0 -8
-4 -8 -9z"/>
<path d="M6540 3270 c-9 -6 -10 -10 -3 -10 6 0 15 5 18 10 8 12 4 12 -15 0z"/>
<path d="M6655 3270 c-3 -5 -1 -10 4 -10 6 0 11 5 11 10 0 6 -2 10 -4 10 -3 0
-8 -4 -11 -10z"/>
<path d="M6810 3269 c0 -5 5 -7 10 -4 6 3 10 8 10 11 0 2 -4 4 -10 4 -5 0 -10
-5 -10 -11z"/>
<path d="M6855 3270 c-3 -5 -1 -10 4 -10 6 0 11 5 11 10 0 6 -2 10 -4 10 -3 0
-8 -4 -11 -10z"/>
<path d="M6483 3263 c9 -2 15 -9 12 -14 -4 -5 -2 -9 3 -9 6 0 12 7 16 15 4 11
-2 15 -22 14 -17 -1 -20 -3 -9 -6z"/>
<path d="M7010 3259 c0 -5 5 -7 10 -4 6 3 10 8 10 11 0 2 -4 4 -10 4 -5 0 -10
-5 -10 -11z"/>
<path d="M5003 3185 c0 -38 2 -53 4 -32 2 20 2 52 0 70 -2 17 -4 1 -4 -38z"/>
<path d="M5120 3220 c6 -11 13 -20 16 -20 2 0 0 9 -6 20 -6 11 -13 20 -16 20
-2 0 0 -9 6 -20z"/>
<path d="M6520 3220 c12 -8 10 -10 -11 -10 -16 0 -26 -6 -26 -15 0 -8 6 -15
12 -15 7 0 18 -6 24 -14 9 -11 7 -15 -9 -19 -11 -3 -20 -1 -20 4 0 5 -4 9 -10
9 -17 0 -11 -47 7 -54 9 -4 19 -3 22 3 3 5 15 10 26 13 17 3 20 11 20 54 0 46
-2 50 -25 52 -20 1 -22 0 -10 -8z m10 -36 c0 -8 -5 -12 -10 -9 -6 4 -8 11 -5
16 9 14 15 11 15 -7z"/>
<path d="M6568 3205 c-6 -28 3 -32 21 -11 8 10 8 16 -3 25 -11 9 -15 6 -18
-14z"/>
<path d="M6986 3205 c-11 -8 -15 -15 -10 -15 6 0 15 5 22 12 9 9 12 9 12 0 0
-7 7 -12 16 -12 19 0 13 24 -7 27 -8 2 -23 -4 -33 -12z"/>
<path d="M6070 3206 c0 -2 8 -10 18 -17 15 -13 16 -12 3 4 -13 16 -21 21 -21
13z"/>
<path d="M6664 3198 c-4 -7 -3 -8 5 -4 6 4 18 3 25 -3 9 -8 13 -7 13 4 0 18
-33 20 -43 3z"/>
<path d="M6621 3191 c-11 -7 -11 -9 0 -14 14 -6 0 -23 -49 -56 -11 -8 -18 -20
-15 -27 4 -11 8 -11 19 1 8 7 14 18 14 24 0 6 5 11 10 11 6 0 10 -11 10 -24 0
-13 6 -27 13 -29 9 -4 9 -6 -1 -6 -10 -1 -10 -4 0 -15 9 -10 18 -11 31 -5 16
9 22 1 18 -24 -1 -5 3 -6 9 -2 6 3 8 10 5 15 -3 5 0 12 6 16 8 4 7 9 -2 16
-10 6 -7 7 9 3 12 -4 22 -2 22 4 0 18 -16 20 -43 6 -15 -8 -27 -10 -27 -4 0 5
5 9 10 9 6 0 10 11 10 25 0 14 5 25 10 25 6 0 10 5 10 11 0 6 -7 9 -15 5 -15
-5 -39 26 -28 38 9 9 -10 7 -26 -3z m24 -81 c3 -5 1 -10 -4 -10 -6 0 -11 5
-11 10 0 6 2 10 4 10 3 0 8 -4 11 -10z"/>
<path d="M6144 3144 c15 -14 31 -22 35 -19 7 7 -39 45 -54 44 -5 0 3 -11 19
-25z"/>
<path d="M6685 3130 c-10 -16 25 -24 38 -10 9 10 9 11 0 6 -7 -4 -13 -2 -13 3
0 14 -17 14 -25 1z"/>
<path d="M4992 3090 c0 -14 2 -19 5 -12 2 6 2 18 0 25 -3 6 -5 1 -5 -13z"/>
<path d="M6437 3089 c4 -13 8 -18 11 -10 2 7 -1 18 -6 23 -8 8 -9 4 -5 -13z"/>
<path d="M6522 3098 c-14 -14 -16 -32 -3 -23 16 9 24 -15 11 -30 -8 -10 -9
-15 -2 -15 20 0 34 38 22 60 -13 24 -13 23 -28 8z"/>
<path d="M6850 3091 c0 -25 6 -27 13 -6 4 8 2 17 -3 20 -6 4 -10 -3 -10 -14z"/>
<path d="M5210 3071 c5 -11 15 -23 21 -27 6 -3 3 5 -6 20 -20 30 -30 35 -15 7z"/>
<path d="M6464 3066 c-20 -11 -22 -36 -3 -36 6 0 8 4 4 9 -3 5 0 13 6 17 6 3
15 0 20 -7 5 -9 11 -11 18 -4 17 17 -20 34 -45 21z"/>
<path d="M6590 3073 c0 -6 -8 -13 -17 -15 -15 -3 -15 -4 1 -20 10 -10 22 -18
27 -18 5 0 9 8 9 18 0 19 -20 54 -20 35z"/>
<path d="M4977 3053 c-4 -3 -7 -13 -7 -22 1 -13 3 -13 11 2 11 19 8 33 -4 20z"/>
<path d="M6736 3048 c3 -4 -2 -8 -10 -8 -9 0 -16 -6 -16 -14 0 -7 -7 -19 -14
-26 -11 -9 -13 -18 -5 -37 7 -20 6 -30 -8 -46 -10 -11 -12 -17 -5 -13 10 6 13
0 10 -25 -3 -30 0 -33 24 -35 19 -2 31 4 42 21 24 37 59 66 72 61 12 -4 24 14
24 35 0 5 -22 9 -49 9 -35 0 -51 4 -55 16 -12 32 -6 44 23 44 17 0 33 5 37 11
5 8 -1 10 -19 7 -15 -3 -24 -2 -21 3 2 4 -4 7 -15 6 -11 0 -17 -5 -15 -9z m-3
-163 c4 -8 3 -16 -1 -19 -4 -3 -9 4 -9 15 -2 23 3 25 10 4z"/>
<path d="M6856 3051 c-3 -5 1 -11 9 -14 9 -4 12 -1 8 9 -6 16 -10 17 -17 5z"/>
<path d="M6976 3047 c3 -10 9 -15 12 -12 3 3 0 11 -7 18 -10 9 -11 8 -5 -6z"/>
<path d="M6300 3040 c0 -6 7 -13 15 -16 8 -4 13 -10 10 -14 -7 -12 13 -23 25
-15 13 8 -3 31 -32 46 -12 7 -18 6 -18 -1z"/>
<path d="M6624 3013 c2 -13 0 -26 -5 -29 -12 -7 -12 -24 0 -24 15 0 21 29 10
52 l-10 23 5 -22z"/>
<path d="M4595 3010 c-4 -6 6 -10 22 -10 22 0 25 2 13 10 -19 12 -27 12 -35 0z"/>
<path d="M6985 2983 c-8 -20 -15 -43 -14 -52 0 -12 2 -11 8 4 12 28 48 58 60
50 6 -3 11 -3 11 2 0 4 -11 13 -25 20 -24 11 -26 9 -40 -24z"/>
<path d="M4678 3003 c6 -2 18 -2 25 0 6 3 1 5 -13 5 -14 0 -19 -2 -12 -5z"/>
<path d="M4740 3000 c8 -5 27 -10 42 -10 15 0 50 -9 77 -20 l50 -19 24 22 c13
12 16 16 7 10 -21 -17 -45 -16 -73 1 -12 7 -49 16 -82 19 -39 4 -54 3 -45 -3z"/>
<path d="M6516 3002 c-3 -5 0 -13 6 -16 10 -5 10 -7 1 -12 -10 -4 -9 -9 2 -20
17 -18 31 -12 38 16 3 12 1 17 -5 14 -5 -3 -15 2 -22 12 -8 11 -15 13 -20 6z"/>
<path d="M6375 2990 c3 -5 8 -10 11 -10 2 0 4 5 4 10 0 6 -5 10 -11 10 -5 0
-7 -4 -4 -10z"/>
<path d="M6649 2985 c0 -6 -2 -19 -4 -29 -3 -18 -2 -18 13 -3 13 13 14 20 4
29 -7 7 -12 8 -13 3z"/>
<path d="M6457 2965 c-4 -8 -2 -17 3 -20 6 -4 10 3 10 14 0 25 -6 27 -13 6z"/>
<path d="M6580 2971 c0 -6 4 -13 10 -16 6 -3 7 1 4 9 -7 18 -14 21 -14 7z"/>
<path d="M6400 2961 c0 -11 26 -22 34 -14 12 12 5 23 -14 23 -11 0 -20 -4 -20
-9z"/>
<path d="M6623 2938 c3 -9 1 -19 -6 -22 -7 -2 -4 -5 6 -5 20 -1 21 7 6 29 -9
13 -10 13 -6 -2z"/>
<path d="M6272 2919 c4 -29 26 -36 24 -8 0 12 -7 24 -14 27 -9 3 -13 -3 -10
-19z"/>
<path d="M6573 2921 c1 -15 4 -17 14 -9 7 5 10 14 7 19 -10 16 -23 9 -21 -10z"/>
<path d="M4525 2899 c-4 -6 -5 -12 -2 -15 2 -3 7 2 10 11 7 17 1 20 -8 4z"/>
<path d="M5680 2860 c0 -16 5 -30 10 -30 6 0 10 14 10 30 0 17 -4 30 -10 30
-5 0 -10 -13 -10 -30z"/>
<path d="M6436 2862 c-3 -5 1 -9 9 -9 8 0 12 4 9 9 -3 4 -7 8 -9 8 -2 0 -6 -4
-9 -8z"/>
<path d="M5818 2828 c-14 -14 -15 -18 -2 -29 18 -15 26 -7 22 23 -3 22 -4 22
-20 6z"/>
<path d="M6490 2840 c0 -5 5 -10 11 -10 5 0 7 5 4 10 -3 6 -8 10 -11 10 -2 0
-4 -4 -4 -10z"/>
<path d="M6457 2813 c-10 -10 -8 -33 2 -33 6 0 9 9 8 20 -1 23 -1 22 -10 13z"/>
<path d="M6850 2809 c0 -5 5 -7 10 -4 6 3 10 8 10 11 0 2 -4 4 -10 4 -5 0 -10
-5 -10 -11z"/>
<path d="M5686 2762 c6 -4 14 -14 17 -22 4 -10 6 -8 6 8 1 15 -5 22 -16 22
-11 0 -14 -3 -7 -8z"/>
<path d="M3800 2750 c0 -5 7 -10 16 -10 8 0 12 5 9 10 -3 6 -10 10 -16 10 -5
0 -9 -4 -9 -10z"/>
<path d="M6446 2745 c3 -7 -11 -28 -32 -49 -40 -40 -25 -49 19 -10 30 26 43
71 21 71 -6 0 -10 -6 -8 -12z"/>
<path d="M6615 2751 c-6 -10 15 -51 26 -51 9 0 -2 49 -12 55 -4 3 -10 1 -14
-4z"/>
<path d="M2775 2730 c-8 -13 5 -13 25 0 13 8 13 10 -2 10 -9 0 -20 -4 -23 -10z"/>
<path d="M3222 2705 c0 -16 2 -22 5 -12 2 9 2 23 0 30 -3 6 -5 -1 -5 -18z"/>
<path d="M3356 2703 c1 -38 18 -40 21 -3 2 18 -2 30 -10 30 -7 0 -12 -12 -11
-27z"/>
<path d="M4372 2710 c0 -14 2 -19 5 -12 2 6 2 18 0 25 -3 6 -5 1 -5 -13z"/>
<path d="M6945 2701 c-21 -5 -25 -8 -14 -13 21 -8 70 2 63 13 -3 5 -8 8 -12 8
-4 -1 -20 -4 -37 -8z"/>
<path d="M6785 2680 c-7 -12 12 -12 40 0 18 8 17 9 -7 9 -15 1 -30 -3 -33 -9z"/>
<path d="M3490 2661 c0 -5 -8 -12 -17 -15 -11 -3 -8 -4 6 -3 24 2 44 27 22 27
-6 0 -11 -4 -11 -9z"/>
<path d="M2428 2643 c18 -2 45 -2 60 0 15 2 0 4 -33 4 -33 0 -45 -2 -27 -4z"/>
<path d="M6186 2641 c5 -6 24 -6 44 -1 l35 8 -44 1 c-28 1 -41 -3 -35 -8z"/>
<path d="M5768 2623 c-26 -3 -35 -8 -32 -18 3 -8 -3 -16 -16 -20 -12 -4 -19
-9 -17 -12 7 -6 127 40 127 50 0 4 -6 6 -12 5 -7 -1 -30 -3 -50 -5z"/>
<path d="M5645 2609 c-4 -5 -22 -7 -42 -3 -32 6 -35 5 -30 -11 6 -15 2 -17
-28 -13 -20 2 -31 0 -26 -5 14 -14 95 -22 87 -9 -5 8 1 12 18 12 30 0 56 9 56
20 0 13 -29 20 -35 9z"/>
<path d="M3362 2589 c2 -6 8 -10 13 -10 5 0 11 4 13 10 2 6 -4 11 -13 11 -9 0
-15 -5 -13 -11z"/>
<path d="M3510 2554 c0 -8 5 -12 10 -9 6 3 10 10 10 16 0 5 -4 9 -10 9 -5 0
-10 -7 -10 -16z"/>
<path d="M4540 2520 l-35 -7 37 -2 c20 0 40 4 43 9 7 11 7 11 -45 0z"/>
<path d="M3370 2484 c0 -8 5 -12 10 -9 6 4 8 11 5 16 -9 14 -15 11 -15 -7z"/>
<path d="M3420 2450 c0 -13 60 -13 80 0 11 7 2 10 -32 10 -27 0 -48 -4 -48
-10z"/>
<path d="M3280 2440 c-22 -7 -20 -8 15 -9 22 0 47 4 55 9 11 7 8 9 -15 9 -16
-1 -41 -5 -55 -9z"/>
</g>
</svg>
